HIERARCHY
ROOT hip
{
  OFFSET 0.00112043 5.09927 -9.65472
  CHANNELS 6 Xposition Yposition Zposition Zrotation Xrotation Yrotation
  JOINT abdomen
  {
    OFFSET 0 -1.186 -1.5018
    CHANNELS 3 Zrotation Xrotation Yrotation
    JOINT abdomen2
    {
      OFFSET 0 9.964 0.2134
      CHANNELS 3 Zrotation Xrotation Yrotation
      JOINT chest
      {
        OFFSET 0 13.134 -3.2573
        CHANNELS 3 Zrotation Xrotation Yrotation
        JOINT neck
        {
          OFFSET 0 20.686 -1.6905
          CHANNELS 3 Zrotation Xrotation Yrotation
          JOINT head
          {
            OFFSET 0 7.238 -0.1237
            CHANNELS 3 Zrotation Xrotation Yrotation
            End Site
            {
              OFFSET 0 0 0
            }
          }
        }
        JOINT lCollar
        {
          OFFSET 1.7069 20.075 5.0056
          CHANNELS 3 Zrotation Xrotation Yrotation
          JOINT lShldr
          {
            OFFSET 13.6458 -0.047 -4.849
            CHANNELS 3 Zrotation Xrotation Yrotation
            JOINT lForeArm
            {
              OFFSET 28.3255 -0.9759 2.2888
              CHANNELS 3 Zrotation Xrotation Yrotation
              JOINT lHand
              {
                OFFSET 22.1583 -0.53 10.8316
                CHANNELS 3 Zrotation Xrotation Yrotation
                JOINT lThumb1
                {
                  OFFSET 0.786 0.112 2.5817
                  CHANNELS 3 Zrotation Xrotation Yrotation
                  JOINT lThumb2
                  {
                    OFFSET 0.3601 -0.878 4.2331
                    CHANNELS 3 Zrotation Xrotation Yrotation
                    JOINT lThumb2_End
                    {
                      OFFSET 1.8127 -1.216 2.2227
                      CHANNELS 3 Zrotation Xrotation Yrotation
                      End Site
                      {
                        OFFSET 0.0181 -0.0122 0.0222
                      }
                    }
                  }
                }
                JOINT lCarpal1
                {
                  OFFSET 0.9571 1.114 1.7695
                  CHANNELS 3 Zrotation Xrotation Yrotation
                  JOINT lIndex1
                  {
                    OFFSET 4.1246 0.487 4.1451
                    CHANNELS 3 Zrotation Xrotation Yrotation
                    JOINT lIndex2
                    {
                      OFFSET 3.4052 -1.454 2.7682
                      CHANNELS 3 Zrotation Xrotation Yrotation
                      JOINT lIndex2_End
                      {
                        OFFSET 1.4531 -1.795 1.2713
                        CHANNELS 3 Zrotation Xrotation Yrotation
                        End Site
                        {
                          OFFSET 0.0145 -0.0179 0.0127
                        }
                      }
                    }
                  }
                  JOINT lMid1
                  {
                    OFFSET 5.6954 0.21 2.1184
                    CHANNELS 3 Zrotation Xrotation Yrotation
                    JOINT lMid2
                    {
                      OFFSET 3.9766 -1.54 2.3863
                      CHANNELS 3 Zrotation Xrotation Yrotation
                      JOINT lMid2_End
                      {
                        OFFSET 1.4042 -1.926 1.125
                        CHANNELS 3 Zrotation Xrotation Yrotation
                        End Site
                        {
                          OFFSET 0.014 -0.0193 0.0113
                        }
                      }
                    }
                  }
                }
                JOINT lCarpal2
                {
                  OFFSET 2.0956 0.66 -0.3894
                  CHANNELS 3 Zrotation Xrotation Yrotation
                  JOINT lRing1
                  {
                    OFFSET 5.0395 -0.09 2.4971
                    CHANNELS 3 Zrotation Xrotation Yrotation
                    JOINT lRing2
                    {
                      OFFSET 3.7921 -1.552 1.4806
                      CHANNELS 3 Zrotation Xrotation Yrotation
                      JOINT lRing2_End
                      {
                        OFFSET 1.4655 -1.808 0.9609
                        CHANNELS 3 Zrotation Xrotation Yrotation
                        End Site
                        {
                          OFFSET 0.0147 -0.0181 0.0096
                        }
                      }
                    }
                  }
                  JOINT lPinky1
                  {
                    OFFSET 4.9141 -1.269 0.3591
                    CHANNELS 3 Zrotation Xrotation Yrotation
                    JOINT lPinky2
                    {
                      OFFSET 3.1477 -1.685 0.8462
                      CHANNELS 3 Zrotation Xrotation Yrotation
                      JOINT lPinky2_End
                      {
                        OFFSET 0.8055 -1.585 0.7955
                        CHANNELS 3 Zrotation Xrotation Yrotation
                        End Site
                        {
                          OFFSET 0.0081 -0.0158 0.008
                        }
                      }
                    }
                  }
                }
              }
            }
          }
        }
        JOINT rCollar
        {
          OFFSET -1.7069 20.075 5.0056
          CHANNELS 3 Zrotation Xrotation Yrotation
          JOINT rShldr
          {
            OFFSET -13.6458 -0.047 -4.849
            CHANNELS 3 Zrotation Xrotation Yrotation
            JOINT rForeArm
            {
              OFFSET -28.3255 -0.9759 2.2888
              CHANNELS 3 Zrotation Xrotation Yrotation
              JOINT rHand
              {
                OFFSET -22.1583 -0.53 10.8316
                CHANNELS 3 Zrotation Xrotation Yrotation
                JOINT rThumb1
                {
                  OFFSET -0.786 0.112 2.5817
                  CHANNELS 3 Zrotation Xrotation Yrotation
                  JOINT rThumb2
                  {
                    OFFSET -0.3601 -0.878 4.2331
                    CHANNELS 3 Zrotation Xrotation Yrotation
                    JOINT rThumb2_End
                    {
                      OFFSET -1.8127 -1.216 2.2227
                      CHANNELS 3 Zrotation Xrotation Yrotation
                      End Site
                      {
                        OFFSET -0.0181 -0.0122 0.0222
                      }
                    }
                  }
                }
                JOINT rCarpal1
                {
                  OFFSET -0.9571 1.114 1.7695
                  CHANNELS 3 Zrotation Xrotation Yrotation
                  JOINT rIndex1
                  {
                    OFFSET -4.1246 0.487 4.1451
                    CHANNELS 3 Zrotation Xrotation Yrotation
                    JOINT rIndex2
                    {
                      OFFSET -3.4052 -1.454 2.7682
                      CHANNELS 3 Zrotation Xrotation Yrotation
                      JOINT rIndex2_End
                      {
                        OFFSET -1.4531 -1.795 1.2713
                        CHANNELS 3 Zrotation Xrotation Yrotation
                        End Site
                        {
                          OFFSET -0.0145 -0.018 0.0127
                        }
                      }
                    }
                  }
                  JOINT rMid1
                  {
                    OFFSET -5.6954 0.21 2.1184
                    CHANNELS 3 Zrotation Xrotation Yrotation
                    JOINT rMid2
                    {
                      OFFSET -3.9766 -1.54 2.3863
                      CHANNELS 3 Zrotation Xrotation Yrotation
                      JOINT rMid2_End
                      {
                        OFFSET -1.4042 -1.926 1.125
                        CHANNELS 3 Zrotation Xrotation Yrotation
                        End Site
                        {
                          OFFSET -0.014 -0.0193 0.0113
                        }
                      }
                    }
                  }
                }
                JOINT rCarpal2
                {
                  OFFSET -2.0956 0.66 -0.3894
                  CHANNELS 3 Zrotation Xrotation Yrotation
                  JOINT rRing1
                  {
                    OFFSET -5.0395 -0.09 2.4971
                    CHANNELS 3 Zrotation Xrotation Yrotation
                    JOINT rRing2
                    {
                      OFFSET -3.7921 -1.552 1.4806
                      CHANNELS 3 Zrotation Xrotation Yrotation
                      JOINT rRing2_End
                      {
                        OFFSET -1.4655 -1.808 0.9609
                        CHANNELS 3 Zrotation Xrotation Yrotation
                        End Site
                        {
                          OFFSET -0.0147 -0.0181 0.0096
                        }
                      }
                    }
                  }
                  JOINT rPinky1
                  {
                    OFFSET -4.9141 -1.269 0.3592
                    CHANNELS 3 Zrotation Xrotation Yrotation
                    JOINT rPinky2
                    {
                      OFFSET -3.1477 -1.685 0.8462
                      CHANNELS 3 Zrotation Xrotation Yrotation
                      JOINT rPinky2_End
                      {
                        OFFSET -0.8055 -1.585 0.7955
                        CHANNELS 3 Zrotation Xrotation Yrotation
                        End Site
                        {
                          OFFSET -0.0081 -0.0158 0.008
                        }
                      }
                    }
                  }
                }
              }
            }
          }
        }
      }
    }
  }
  JOINT lThigh
  {
    OFFSET 8.367 -8.2066 0.5982
    CHANNELS 3 Zrotation Xrotation Yrotation
    JOINT lShin
    {
      OFFSET 2.1923 -43.463 -0.4932
      CHANNELS 3 Zrotation Xrotation Yrotation
      JOINT lFoot
      {
        OFFSET 0.7333 -45.8593 -2.6451
        CHANNELS 3 Zrotation Xrotation Yrotation
        End Site
        {
          OFFSET 2.6618 -4.2699 12.3931
        }
      }
    }
  }
  JOINT rThigh
  {
    OFFSET -8.367 -8.2066 0.5982
    CHANNELS 3 Zrotation Xrotation Yrotation
    JOINT rShin
    {
      OFFSET -2.1923 -43.463 -0.4931
      CHANNELS 3 Zrotation Xrotation Yrotation
      JOINT rFoot
      {
        OFFSET -0.7333 -45.8593 -2.6451
        CHANNELS 3 Zrotation Xrotation Yrotation
        End Site
        {
          OFFSET -2.6618 -4.2699 12.3931
        }
      }
    }
  }
}
MOTION
Frames:	4
Frame Time:	0.0333333
0 91.7903 2.51682 0 0 -0 0 0 -0 0 0 -0 0 0 -0 0 0 -0 0 0 -0 0 0 -0 1.66051 0.0835086 5.75766 -0.0175111 0.895433 15.7816 7.95139e-016 -1.98785e-016 -0 5.46658e-016 -3.97569e-016 -0 5.96354e-016 0 -0 3.97569e-016 1.98785e-016 9.54166e-015 1.49089e-016 -3.97569e-016 -0 6.4605e-016 0 3.18055e-015 5.96354e-016 0 3.18055e-015 8.94531e-016 -1.98785e-016 6.36111e-015 6.4605e-016 0 3.18055e-015 5.96354e-016 0 3.18055e-015 8.94531e-016 -1.98785e-016 6.36111e-015 1.49089e-016 -3.97569e-016 -0 6.4605e-016 0 3.18055e-015 5.96354e-016 0 3.18055e-015 8.94531e-016 -1.98785e-016 6.36111e-015 6.4605e-016 0 3.18055e-015 5.96354e-016 0 3.18055e-015 8.94531e-016 -1.98785e-016 6.36111e-015 0 0 -0 -1.4496 0.0636048 -5.0245 -1.74811 1.20616 -16.8394 -1.19271e-015 1.98785e-016 -3.18055e-015 -3.97569e-016 1.98785e-016 -3.18055e-015 -2.98177e-016 1.98785e-016 -3.18055e-015 -2.98177e-016 3.97569e-016 -0 4.96962e-016 0 -6.36111e-015 -9.93923e-017 3.97569e-016 -0 -8.94531e-016 5.96354e-016 -0 -3.97569e-016 3.97569e-016 -0 -9.93923e-017 3.97569e-016 -0 -8.94531e-016 5.96354e-016 -0 -3.97569e-016 3.97569e-016 -0 4.96962e-016 0 -6.36111e-015 -9.93923e-017 3.97569e-016 -0 -8.94531e-016 5.96354e-016 -0 -3.97569e-016 3.97569e-016 -0 -9.93923e-017 3.97569e-016 -0 -8.94531e-016 5.96354e-016 -0 -3.97569e-016 3.97569e-016 -0 -4.66111 -0.998717 0.12318 0.00986924 1.54847 0.176523 4.65186 -0.572283 -0.254274 4.66111 -0.998765 -0.123176 -0.00986867 1.54869 -0.176537 -4.65186 -0.572453 0.25427 
-5.88238 44.5383 9.80618 -3.28563e-015 28.0015 180 -0.909569 3.85658 -0.238313 -1.80918 7.71643 -0.416495 -1.80918 7.71645 -0.416494 -1.59175e-006 -0.281478 -4.04242e-006 0.135755 -0.459534 0.278563 -25.9665 -9.11992 -26.1614 -8.93073 -22.1965 -16.0086 -17.9879 7.51109 -18.1818 -51.3712 10.284 14.2968 -5.05546e-007 4.99901e-007 4.72438e-007 5.05546e-007 -4.99901e-007 -4.72438e-007 1.01109e-006 -9.99803e-007 -9.44876e-007 6.36111e-015 0 1.59028e-015 -5.05546e-007 4.99901e-007 4.72438e-007 5.05546e-007 -4.99901e-007 -4.72438e-007 1.01109e-006 -9.99803e-007 -9.44876e-007 -5.05546e-007 4.99901e-007 4.72438e-007 5.05546e-007 -4.99901e-007 -4.72438e-007 1.01109e-006 -9.99803e-007 -9.44876e-007 6.36111e-015 0 1.59028e-015 -5.05546e-007 4.99901e-007 4.72438e-007 5.05546e-007 -4.99901e-007 -4.72438e-007 1.01109e-006 -9.99803e-007 -9.44876e-007 -5.05546e-007 4.99901e-007 4.72438e-007 5.05546e-007 -4.99901e-007 -4.72438e-007 1.01109e-006 -9.99803e-007 -9.44876e-007 15.9916 -0.827841 28.9563 14.2896 -17.0088 37.5 12.3163 5.00646 18.9405 34.6398 1.16759 25.6152 -1.76805e-007 -1.05763e-006 3.41015e-006 4.02146e-006 1.18674e-006 1.57623e-006 6.19011e-007 2.44523e-006 2.9925e-006 3.18055e-015 -1.59028e-015 -3.18055e-015 -1.76805e-007 -1.05763e-006 3.41015e-006 4.02146e-006 1.18674e-006 1.57623e-006 6.19011e-007 2.44523e-006 2.9925e-006 -1.76805e-007 -1.05763e-006 3.41015e-006 4.02146e-006 1.18674e-006 1.57623e-006 6.19011e-007 2.44523e-006 2.9925e-006 3.18055e-015 -1.59028e-015 -3.18055e-015 -1.76805e-007 -1.05763e-006 3.41015e-006 4.02146e-006 1.18674e-006 1.57623e-006 6.19011e-007 2.44523e-006 2.9925e-006 -1.76805e-007 -1.05763e-006 3.41015e-006 4.02146e-006 1.18674e-006 1.57623e-006 6.19011e-007 2.44523e-006 2.9925e-006 91.9742 -43.2086 72.2275 174.821 73.8505 147.222 -18.3643 46.4395 49.472 -91.215 -46.302 -74.1807 -175.135 68.754 -147.766 16.5679 42.6844 -52.0807 
-5.88686 44.1496 10.1766 -3.15411e-015 28.8321 180 -0.912023 4.25468 -0.224795 -1.81479 8.51241 -0.383024 -1.81479 8.5124 -0.383025 -8.10913e-005 -0.55911 1.47663e-006 0.19114 -0.926404 0.5832 -25.4215 -10.2222 -26.173 -8.99587 -22.1972 -16.3352 -18.1898 7.66422 -18.687 -51.4338 9.48007 14.0362 5.05282e-007 -5.00035e-007 -4.72623e-007 4.28626e-006 -6.16685e-007 3.56963e-006 -1.01056e-006 1.00007e-006 9.45245e-007 -6.36111e-015 -6.36111e-015 -3.18055e-015 5.05282e-007 -5.00035e-007 -4.72623e-007 4.28626e-006 -6.16685e-007 3.56963e-006 -1.01056e-006 1.00007e-006 9.45245e-007 5.05282e-007 -5.00035e-007 -4.72623e-007 4.28626e-006 -6.16685e-007 3.56963e-006 -1.01056e-006 1.00007e-006 9.45245e-007 -6.36111e-015 -6.36111e-015 -3.18055e-015 5.05282e-007 -5.00035e-007 -4.72623e-007 4.28626e-006 -6.16685e-007 3.56963e-006 -1.01056e-006 1.00007e-006 9.45245e-007 5.05282e-007 -5.00035e-007 -4.72623e-007 4.28626e-006 -6.16685e-007 3.56963e-006 -1.01056e-006 1.00007e-006 9.45245e-007 15.9214 -2.91241 28.3386 14.2896 -17.0089 37.5 12.8845 5.39387 20.8158 35.0961 -0.362011 24.6857 -1.05949e-006 2.02872e-006 6.76012e-007 9.67389e-008 -3.54205e-006 2.89057e-007 1.05949e-006 -2.02872e-006 -6.76012e-007 -6.36111e-015 6.36111e-015 -0 -1.05949e-006 2.02872e-006 6.76012e-007 9.67389e-008 -3.54205e-006 2.89057e-007 1.05949e-006 -2.02872e-006 -6.76012e-007 -1.05949e-006 2.02872e-006 6.76012e-007 9.67389e-008 -3.54205e-006 2.89057e-007 1.05949e-006 -2.02872e-006 -6.76012e-007 -6.36111e-015 6.36111e-015 -0 -1.05949e-006 2.02872e-006 6.76012e-007 9.67389e-008 -3.54205e-006 2.89057e-007 1.05949e-006 -2.02872e-006 -6.76012e-007 -1.05949e-006 2.02872e-006 6.76012e-007 9.67389e-008 -3.54205e-006 2.89057e-007 1.05949e-006 -2.02872e-006 -6.76012e-007 92.7019 -43.6104 72.8641 174.785 73.5485 147.349 -18.8576 47.4616 50.1036 -92.3779 -46.32 -75.104 -175.086 68.1643 -147.956 16.3289 43.5331 -52.1221 
-5.8911 43.757 10.5455 -3.02026e-015 29.6642 180 -0.913984 4.65338 -0.211253 -1.81974 9.30953 -0.349456 -1.81974 9.30953 -0.349456 -8.26302e-008 -0.836409 4.45297e-006 0.249118 -1.39376 0.888859 -24.8737 -11.3264 -26.1739 -9.06103 -22.1975 -16.6618 -18.3904 7.81921 -19.192 -51.5001 8.67566 13.775 5.05048e-007 -5.00177e-007 -4.72757e-007 3.67493e-006 -3.88919e-006 8.0418e-006 5.05048e-007 -5.00177e-007 -4.72757e-007 0 0 -3.18055e-015 5.05048e-007 -5.00177e-007 -4.72757e-007 3.67493e-006 -3.88919e-006 8.0418e-006 5.05048e-007 -5.00177e-007 -4.72757e-007 5.05048e-007 -5.00177e-007 -4.72757e-007 3.67493e-006 -3.88919e-006 8.0418e-006 5.05048e-007 -5.00177e-007 -4.72757e-007 0 0 -3.18055e-015 5.05048e-007 -5.00177e-007 -4.72757e-007 3.67493e-006 -3.88919e-006 8.0418e-006 5.05048e-007 -5.00177e-007 -4.72757e-007 5.05048e-007 -5.00177e-007 -4.72757e-007 3.67493e-006 -3.88919e-006 8.0418e-006 5.05048e-007 -5.00177e-007 -4.72757e-007 15.8278 -5.00844 27.7131 14.2896 -17.0088 37.5 13.4429 5.80174 22.6982 35.5297 -1.90529 23.7639 3.18055e-015 2.06736e-014 6.36111e-015 1.29861e-006 4.28363e-006 -8.95623e-007 3.31363e-006 2.87832e-006 5.15791e-006 3.18055e-015 3.18055e-015 6.36111e-015 3.18055e-015 1.11319e-014 9.54166e-015 1.29861e-006 4.28363e-006 -8.95623e-007 3.31363e-006 2.87832e-006 5.15791e-006 3.18055e-015 1.11319e-014 9.54166e-015 1.29861e-006 4.28363e-006 -8.95623e-007 3.31363e-006 2.87832e-006 5.15791e-006 3.18055e-015 3.18055e-015 6.36111e-015 3.18055e-015 1.11319e-014 9.54166e-015 1.29861e-006 4.28363e-006 -8.95623e-007 3.31363e-006 2.87832e-006 5.15791e-006 3.18055e-015 1.11319e-014 9.54166e-015 1.29861e-006 4.28363e-006 -8.95623e-007 3.31363e-006 2.87832e-006 5.15791e-006 93.4401 -44.0069 73.5119 174.751 73.2466 147.476 -19.3782 48.481 50.7616 -93.5422 -46.3271 -76.032 -175.039 67.5737 -148.146 16.088 44.382 -52.1608 
